<?xml version="1.0" standalone="no"?>
<!DOCTYPE svg PUBLIC "-//W3C//DTD SVG 20010904//EN"
 "http://www.w3.org/TR/2001/REC-SVG-20010904/DTD/svg10.dtd">
<svg version="1.0" xmlns="http://www.w3.org/2000/svg"
 width="186.000000pt" height="118.000000pt" viewBox="0 0 186.000000 118.000000"
 preserveAspectRatio="xMidYMid meet">

<g transform="translate(0.000000,118.000000) scale(0.100000,-0.100000)"
fill="#000000" stroke="none">
<path d="M1001 1167 c-35 -17 -47 -61 -27 -92 23 -35 61 -42 94 -19 25 18 48
19 375 16 l347 -2 0 -70 0 -70 -395 0 -395 0 0 -460 0 -460 425 0 425 0 0 145
0 145 -220 0 -220 0 0 -35 0 -35 190 0 191 0 -3 -77 c-3 -67 -6 -78 -20 -77
-10 0 -173 1 -363 2 l-345 2 2 387 3 388 393 3 392 2 0 140 0 140 -377 0
c-306 0 -379 3 -392 14 -25 22 -54 27 -80 13z m49 -55 c0 -24 -8 -32 -26 -25
-22 8 -17 43 6 43 13 0 20 -7 20 -18z"/>
<path d="M27 1152 c-53 -58 26 -145 89 -97 15 12 62 14 244 14 253 1 270 -3
350 -75 66 -60 85 -104 85 -204 0 -95 -17 -138 -77 -199 -64 -66 -117 -81
-298 -88 l-161 -6 3 -141 3 -141 200 0 c217 0 246 6 281 60 18 27 30 96 21
119 -10 24 -67 -12 -67 -42 0 -13 -11 -34 -25 -47 -24 -24 -28 -25 -185 -25
l-160 0 0 79 0 79 143 4 c134 3 145 5 200 32 71 36 130 99 165 174 23 48 27
71 27 142 0 71 -4 94 -26 141 -37 79 -90 133 -167 171 l-66 33 -237 3 c-193 2
-240 6 -249 17 -17 21 -74 19 -93 -3z m68 -32 c4 -6 1 -18 -6 -26 -11 -13 -14
-13 -27 0 -8 8 -11 19 -8 25 9 14 33 14 41 1z"/>
<path d="M40 734 c0 -181 -2 -198 -20 -221 -25 -32 -25 -44 1 -77 13 -17 30
-26 49 -26 19 0 36 9 49 26 25 32 26 40 6 78 -11 22 -15 66 -15 186 l0 158 63
7 c35 4 134 5 221 3 152 -3 159 -4 177 -27 26 -31 25 -83 -2 -107 -18 -16 -40
-19 -165 -22 l-144 -3 0 -32 0 -32 157 5 c176 6 198 13 227 75 32 67 12 142
-47 183 -32 21 -40 22 -295 22 l-262 0 0 -196z m47 -250 c8 -21 -13 -42 -28
-27 -13 13 -5 43 11 43 6 0 13 -7 17 -16z"/>
<path d="M1220 715 l0 -35 230 0 230 0 0 -75 0 -75 -230 0 -230 0 0 -102 c0
-80 -3 -105 -16 -119 -24 -26 -21 -69 6 -91 62 -50 143 24 95 88 -9 12 -14 43
-15 87 l0 67 228 0 227 0 0 143 -1 142 -262 3 -262 2 0 -35z m49 -439 c9 -10
8 -16 -4 -26 -19 -16 -41 1 -32 24 8 20 21 20 36 2z"/>
<path d="M884 532 c-19 -13 -35 -52 -29 -72 3 -11 18 -29 32 -40 24 -19 25
-24 21 -83 -9 -106 -72 -197 -167 -241 -43 -20 -65 -21 -338 -24 l-293 -3 0
125 0 126 -35 0 -35 0 0 -157 0 -158 342 5 c391 6 392 6 486 94 72 67 106 148
108 251 0 44 4 90 8 102 7 22 -7 62 -28 75 -6 4 -22 8 -36 8 -14 0 -30 -4 -36
-8z m53 -48 c8 -21 -13 -42 -28 -27 -13 13 -5 43 11 43 6 0 13 -7 17 -16z"/>
</g>
</svg>
