<?xml version="1.0" encoding="iso-8859-1"?>
<!-- Generator: Adobe Illustrator 18.1.1, SVG Export Plug-In . SVG Version: 6.00 Build 0)  -->
<svg version="1.1" id="Capa_1" xmlns="http://www.w3.org/2000/svg" xmlns:xlink="http://www.w3.org/1999/xlink" x="0px" y="0px"
	 viewBox="0 0 15 15" style="enable-background:new 0 0 15 15;" xml:space="preserve">

<!-- <?xml version="1.0" standalone="no"?>
<svg xmlns="http://www.w3.org/2000/svg" width="768.0pt" height="470.0pt" viewBox="0 0 768.0 470.0" preserveAspectRatio="xMidYMid meet"> -->

<g transform="translate(0.0,470.0) scale(0.1,-0.1)" fill="#ffffff" stroke="none">
  <path d="M5181 4625 c-84 -13 -165 -28 -180 -34 -14 -5 -42 -13 -61 -16 -83 -15 -225 -70 -390 -150 -112 -55 -129 -64 -204 -114 -38 -25 -86 -57 -106 -71 -52 -34 -230 -191 -276 -243 -20 -23 -58 -64 -84 -92 -26 -27 -60 -70 -76 -95 -15 -25 -43 -63 -61 -85 -17 -22 -37 -52 -43 -65 -6 -14 -22 -43 -35 -65 -36 -60 -125 -243 -125 -257 0 -7 -12 -35 -25 -63 -14 -27 -25 -62 -25 -77 0 -15 -5 -30 -10 -33 -6 -4 -8 -11 -4 -16 8 -14 94 -55 131 -63 17 -4 37 -14 44 -22 14 -17 43 -18 56 -1 5 6 22 48 37 92 35 103 163 362 182 369 8 3 14 10 14 16 0 25 227 310 272 341 18 13 38 29 43 35 17 22 217 174 227 174 6 0 24 11 40 25 33 28 218 120 313 155 116 44 131 48 219 69 302 72 572 72 917 -2 136 -29 466 -176 527 -234 6 -6 21 -15 32 -18 11 -3 20 -10 20 -14 0 -4 11 -13 25 -19 13 -6 32 -18 42 -27 10 -9 52 -43 93 -77 108 -87 145 -123 211 -208 33 -41 67 -84 77 -95 25 -27 78 -112 162 -255 21 -37 82 -172 90 -201 5 -18 7 -43 3 -57 l-6 -25 -280 5 -280 5 -19 24 c-10 13 -22 29 -27 35 -4 5 -14 21 -21 35 -28 54 -151 208 -211 264 -86 82 -268 209 -314 221 -13 3 -29 12 -36 20 -6 8 -19 14 -28 14 -9 0 -29 7 -46 16 -33 17 -143 50 -217 64 -38 7 -56 18 -97 62 -77 83 -174 108 -277 73 -47 -16 -134 -87 -134 -110 0 -6 -9 -27 -20 -48 -39 -73 -18 -169 54 -245 78 -83 169 -109 249 -73 25 12 49 21 53 21 4 0 26 16 50 35 23 19 49 35 58 35 22 0 144 -38 192 -61 23 -10 46 -19 51 -19 6 0 16 -6 22 -14 7 -8 23 -17 37 -20 23 -6 87 -47 154 -98 14 -11 54 -47 89 -81 85 -83 145 -172 229 -342 13 -27 27 -53 31 -57 8 -8 1044 -21 1071 -13 16 5 19 12 14 28 -4 12 -10 46 -15 77 -9 65 -44 198 -58 221 -5 9 -13 34 -17 55 -3 22 -12 50 -19 64 -8 14 -37 77 -66 140 -61 133 -108 215 -161 283 -21 27 -38 54 -38 60 0 7 -15 28 -33 47 -17 20 -52 58 -77 86 -25 28 -59 66 -75 85 -17 19 -69 68 -115 109 -139 124 -138 123 -171 140 -13 7 -42 27 -63 43 -44 35 -50 38 -227 130 -72 37 -136 67 -141 67 -5 0 -28 8 -51 19 -23 10 -58 22 -77 26 -19 4 -44 14 -55 21 -11 7 -48 17 -82 23 -34 5 -70 14 -80 19 -10 6 -45 13 -78 17 -33 4 -98 13 -144 21 -128 22 -384 16 -570 -11z m356 -861 c21 -21 24 -32 20 -62 -7 -43 -47 -82 -83 -82 -35 0 -84 51 -84 87 0 33 7 43 40 66 36 25 77 21 107 -9z"/>

  <path d="M1971 4616 c-8 -9 -11 -90 -9 -272 l3 -259 135 0 135 0 6 130 c3 72 7 131 8 133 0 1 122 2 270 2 l270 0 6 -52 c3 -29 5 -496 3 -1038 l-3 -985 -57 -67 c-64 -75 -73 -104 -66 -208 8 -107 51 -167 152 -213 84 -39 158 -37 231 4 98 55 145 135 145 244 0 74 -27 136 -88 198 l-37 38 -3 1171 c-2 918 -5 1174 -15 1180 -6 4 -251 8 -543 8 -439 0 -534 -2 -543 -14z m1025 -2527 c46 -43 36 -95 -27 -140 l-28 -20 -41 21 c-68 35 -75 97 -17 146 36 30 76 27 113 -7z"/>

  <path d="M2032 3809 c-93 -16 -180 -108 -197 -207 -4 -23 -4 -69 0 -101 6 -53 12 -65 66 -125 l59 -67 -2 -919 c-3 -842 -4 -919 -20 -936 -9 -11 -20 -32 -24 -47 -9 -38 -117 -146 -175 -175 -101 -51 -248 -48 -349 6 -80 43 -116 75 -142 127 -11 22 -24 42 -28 45 -4 3 -16 32 -26 65 -16 51 -19 106 -24 350 l-5 290 -535 3 c-294 1 -545 0 -557 -3 l-23 -5 0 -288 c0 -294 14 -485 45 -582 8 -25 17 -65 21 -90 8 -54 19 -70 49 -70 24 0 120 44 130 60 3 4 18 11 34 15 55 12 57 22 28 173 -22 112 -27 169 -29 315 -1 145 1 180 13 188 8 5 120 9 249 9 129 0 244 3 255 6 11 3 29 -2 40 -10 18 -13 20 -30 26 -218 5 -179 8 -209 27 -250 12 -26 22 -54 22 -62 0 -8 4 -17 9 -20 5 -3 23 -32 41 -64 47 -84 145 -171 254 -226 50 -25 98 -46 106 -46 8 0 33 -7 55 -15 56 -20 244 -20 292 0 19 8 42 15 50 15 32 0 140 56 198 101 139 110 207 212 251 377 l24 92 0 895 0 894 43 53 c76 93 78 99 79 192 1 72 -2 91 -18 114 -11 15 -23 35 -27 44 -10 27 -93 82 -145 95 -53 14 -65 14 -140 2z m132 -203 c14 -19 26 -44 26 -56 0 -55 -75 -104 -122 -79 -64 32 -77 101 -27 143 45 38 90 35 123 -8z"/>

  <path d="M4708 3570 c-124 -98 -249 -236 -320 -354 -65 -109 -122 -235 -134 -296 -3 -19 -12 -46 -19 -60 -19 -36 -37 -203 -42 -380 -5 -169 18 -437 42 -500 8 -19 19 -55 26 -80 6 -24 17 -53 25 -64 8 -11 14 -30 14 -43 0 -12 4 -24 9 -27 4 -3 25 -38 45 -78 86 -171 242 -347 402 -454 45 -29 90 -57 100 -60 11 -4 27 -14 37 -22 10 -9 32 -21 50 -28 18 -7 64 -24 102 -39 39 -14 113 -38 165 -52 87 -24 111 -26 295 -26 156 0 209 4 242 16 23 9 63 19 90 23 56 8 247 80 282 106 13 10 28 18 33 18 6 0 27 13 47 29 20 15 51 36 68 45 47 24 254 231 299 300 22 32 55 84 74 115 l35 56 288 3 287 2 6 -24 c4 -16 -2 -43 -16 -73 -83 -178 -176 -347 -202 -368 -7 -5 -31 -37 -52 -70 -45 -68 -279 -305 -346 -350 -25 -16 -67 -47 -93 -67 -27 -21 -55 -38 -62 -38 -7 0 -18 -6 -24 -14 -18 -22 -276 -146 -303 -146 -9 0 -21 -7 -28 -15 -6 -7 -32 -17 -58 -21 -25 -4 -64 -15 -87 -25 -22 -10 -59 -19 -81 -19 -23 0 -61 -7 -84 -15 -69 -24 -112 -20 -159 18 -84 67 -107 77 -182 77 -58 0 -79 -5 -117 -27 -26 -15 -57 -36 -69 -48 -32 -31 -73 -128 -73 -175 0 -50 42 -146 76 -172 13 -11 31 -26 39 -34 8 -8 37 -22 64 -30 92 -27 226 9 267 71 21 33 74 55 128 55 45 0 166 26 256 54 25 8 62 18 83 21 20 4 54 16 74 26 21 11 43 19 50 19 7 0 30 9 50 20 21 11 45 20 54 20 9 0 22 7 29 15 7 8 18 15 24 15 15 0 127 59 144 76 7 8 18 14 24 14 18 0 128 74 236 159 224 176 329 298 538 621 26 41 74 142 74 157 0 6 7 16 15 23 8 7 15 20 15 29 0 9 7 30 16 46 9 17 22 50 30 75 7 25 26 90 43 145 16 55 32 118 36 140 4 22 9 47 11 56 10 35 -44 39 -552 39 -271 0 -503 -4 -516 -9 -15 -6 -34 -31 -52 -67 -15 -33 -32 -66 -37 -74 -5 -8 -17 -31 -28 -50 -57 -105 -237 -291 -344 -357 -70 -43 -168 -93 -181 -93 -6 0 -33 -9 -61 -19 -103 -40 -191 -53 -340 -48 -200 6 -278 25 -440 103 -133 65 -189 107 -309 232 -100 104 -136 159 -204 312 -59 134 -69 190 -78 420 -8 214 6 397 36 482 11 32 20 63 20 70 0 13 43 102 58 122 5 6 13 22 17 35 22 71 194 270 282 324 39 25 41 28 33 59 -4 18 -26 70 -49 116 -30 61 -46 82 -60 82 -11 0 -48 -22 -83 -50z m821 -3184 c8 -6 20 -24 26 -40 10 -24 10 -34 -4 -57 -30 -53 -98 -62 -141 -19 -29 29 -25 71 8 102 42 39 74 44 111 14z"/>

  <path d="M3431 2658 c-51 -11 -109 -61 -146 -125 -20 -34 -25 -55 -25 -115 0 -84 17 -125 80 -190 31 -33 40 -50 45 -92 3 -28 10 -73 15 -101 5 -27 12 -77 16 -110 4 -33 11 -71 16 -85 6 -14 16 -50 23 -80 38 -159 153 -425 248 -574 19 -28 42 -64 52 -81 31 -50 186 -236 255 -306 36 -36 94 -88 129 -115 35 -27 77 -61 93 -76 15 -14 50 -39 76 -54 26 -15 55 -33 64 -41 19 -17 46 -32 185 -102 55 -28 105 -51 111 -51 5 0 15 -7 22 -15 28 -34 70 -8 88 55 6 19 20 58 33 86 12 29 19 59 16 67 -3 9 -57 41 -119 71 -62 30 -130 66 -151 80 -21 14 -42 26 -47 26 -4 0 -30 17 -57 38 -26 21 -68 52 -93 69 -94 66 -306 288 -378 396 -15 22 -34 50 -42 63 -30 45 -80 134 -80 143 0 5 -7 14 -15 21 -8 7 -15 20 -15 30 0 9 -9 28 -19 42 -11 13 -23 38 -27 54 -4 16 -12 40 -20 54 -18 36 -44 115 -60 189 -8 35 -19 71 -23 80 -5 9 -12 45 -16 81 -3 36 -11 91 -16 122 -11 67 -2 91 55 149 30 30 37 47 45 100 11 82 0 156 -33 204 -31 45 -78 82 -115 89 -63 12 -129 14 -170 4z m114 -164 c20 -8 45 -56 45 -86 -1 -40 -32 -70 -75 -71 -30 -1 -43 5 -66 31 -36 40 -36 62 -3 101 26 31 60 39 99 25z"/>

  <path d="M2800 1414 c-6 -14 -10 -36 -10 -49 0 -14 -6 -44 -14 -67 -8 -24 -17 -59 -21 -78 -11 -55 -110 -265 -144 -305 -9 -11 -23 -33 -31 -49 -23 -45 -240 -259 -295 -291 -27 -16 -52 -32 -55 -35 -15 -18 -74 -51 -140 -79 -41 -18 -84 -36 -95 -41 -41 -17 -121 -42 -165 -50 -87 -18 -344 -24 -442 -11 -98 13 -253 55 -263 72 -4 5 -13 9 -21 9 -19 0 -125 49 -142 66 -6 7 -22 16 -34 20 -28 9 -77 43 -99 69 -11 13 -18 44 -21 95 -6 87 -25 124 -98 183 -57 47 -107 61 -193 54 -105 -9 -162 -50 -212 -154 -51 -106 -27 -225 63 -303 62 -55 100 -70 177 -70 55 0 76 -5 116 -27 27 -16 49 -31 49 -35 0 -4 30 -24 66 -45 37 -21 87 -50 113 -65 25 -15 53 -27 61 -27 8 -1 29 -8 45 -17 40 -21 159 -58 275 -86 84 -20 119 -22 310 -21 186 0 226 3 294 22 44 11 87 21 95 21 9 1 34 9 56 20 22 11 48 19 58 20 21 0 259 114 279 133 7 7 36 27 63 45 77 49 102 70 200 167 153 152 163 165 262 333 51 89 93 181 124 277 26 79 71 304 64 316 -4 5 -65 9 -136 9 l-129 0 -10 -26z m-2194 -691 c38 -38 41 -73 10 -110 -35 -41 -66 -48 -109 -23 -62 36 -68 89 -16 136 43 39 74 38 115 -3z"/>
</g>
</svg>
