<svg height="512pt" viewBox="0 0 512.00533 512" width="512pt" xmlns="http://www.w3.org/2000/svg"><path fill="#fff" d="m46.789062 415.539062c-3.582031 0-7.105468-1.8125-9.109374-5.097656-24.640626-40.320312-37.67578175-86.230468-37.67578175-132.695312 0-141.160156 114.83984375-256 255.99999975-256 46.699219 0 92.652344 12.949218 132.886719 37.484375 5.035156 3.070312 6.632813 9.621093 3.5625 14.65625-3.050781 5.035156-9.621094 6.632812-14.65625 3.5625-36.886719-22.507813-78.996094-34.371094-121.792969-34.371094-129.386718 0-234.664062 105.28125-234.664062 234.667969 0 42.5625 11.945312 84.609375 34.558594 121.578125 3.070312 5.015625 1.492187 11.585937-3.542969 14.679687-1.746094 1.042969-3.667969 1.535156-5.566407 1.535156zm0 0"/><path fill="#fff" d="m117.507812 490.652344c-2.066406 0-4.179687-.597656-6.015624-1.875-17.195313-11.777344-33.109376-25.898438-47.273438-41.941406-3.902344-4.417969-3.5-11.136719.917969-15.0625 4.4375-3.882813 11.15625-3.476563 15.0625.9375 13.03125 14.722656 27.601562 27.691406 43.347656 38.488281 4.863281 3.324219 6.101563 9.960937 2.773437 14.824219-2.070312 3.007812-5.417968 4.628906-8.8125 4.628906zm0 0"/><path fill="#fff" d="m394.566406 490.609375c-3.394531 0-6.742187-1.621094-8.8125-4.628906-3.328125-4.882813-2.089844-11.496094 2.773438-14.824219 63.957031-43.882812 102.144531-116.160156 102.144531-193.410156 0-67.09375-29.035156-131.15625-79.636719-175.828125-4.417968-3.90625-4.84375-10.644531-.9375-15.0625 3.921875-4.371094 10.644532-4.84375 15.058594-.9375 55.191406 48.703125 86.847656 118.613281 86.847656 191.828125 0 84.265625-41.664062 163.15625-111.421875 211.007812-1.855469 1.257813-3.949219 1.855469-6.015625 1.855469zm0 0"/><path fill="#fff" d="m153.625 437.875c-2.066406 0-4.160156-.597656-6.015625-1.855469-13.714844-9.386719-26.539063-21.078125-38.121094-34.773437-3.820312-4.503906-3.242187-11.222656 1.238281-15.039063 4.519532-3.800781 11.242188-3.222656 15.039063 1.257813 10.367187 12.222656 21.757813 22.65625 33.898437 30.933594 4.863282 3.328124 6.101563 9.984374 2.773438 14.824218-2.046875 3.03125-5.398438 4.652344-8.8125 4.652344zm0 0"/><path fill="#fff" d="m358.40625 437.851562c-3.394531 0-6.742188-1.621093-8.8125-4.648437-3.328125-4.863281-2.089844-11.476563 2.773438-14.804687 46.527343-31.894532 74.304687-84.480469 74.304687-140.652344 0-50.324219-22.121094-97.855469-60.714844-130.429688-4.5-3.800781-5.054687-10.519531-1.28125-15.019531 3.800781-4.523437 10.496094-5.078125 15.042969-1.28125 43.390625 36.609375 68.285156 90.089844 68.285156 146.730469 0 63.234375-31.230468 122.367187-83.5625 158.25-1.855468 1.261718-3.964844 1.855468-6.035156 1.855468zm0 0"/><path fill="#fff" d="m93.722656 368.605469c-3.925781 0-7.703125-2.175781-9.558594-5.910157-13.375-26.878906-20.160156-55.464843-20.160156-84.949218 0-105.875 86.144532-192 192-192 29.613282 0 58.242188 6.742187 85.058594 20.03125 5.289062 2.625 7.445312 9.023437 4.820312 14.292968-2.601562 5.3125-9.046874 7.445313-14.292968 4.84375-23.851563-11.839843-49.28125-17.835937-75.585938-17.835937-94.101562 0-170.664062 76.566406-170.664062 170.667969 0 26.175781 6.035156 51.5625 17.917968 75.457031 2.625 5.269531.46875 11.667969-4.800781 14.292969-1.535156.769531-3.15625 1.109375-4.734375 1.109375zm0 0"/><path fill="#fff" d="m142.917969 319.410156c-4.695313 0-8.980469-3.113281-10.285157-7.851562-3.070312-11.261719-4.628906-22.632813-4.628906-33.8125 0-70.589844 57.410156-128 128-128 11.136719 0 22.507813 1.558594 33.792969 4.628906 5.675781 1.535156 9.046875 7.402344 7.488281 13.078125-1.535156 5.695313-7.421875 9.023437-13.097656 7.507813-69.570312-18.898438-134.847656 34.710937-134.847656 102.785156 0 9.300781 1.300781 18.773437 3.882812 28.183594 1.554688 5.695312-1.792968 11.539062-7.488281 13.097656-.917969.253906-1.878906.382812-2.816406.382812zm0 0"/><path fill="#fff" d="m189.765625 385.136719c-2.070313 0-4.179687-.59375-6.015625-1.875-10.859375-7.445313-20.652344-16.8125-29.140625-27.839844-3.585937-4.671875-2.710937-11.371094 1.960937-14.957031 4.695313-3.539063 11.371094-2.6875 14.953126 1.964844 7.105468 9.257812 15.277343 17.066406 24.277343 23.253906 4.867188 3.328125 6.101563 9.960937 2.773438 14.824218-2.066407 3.007813-5.417969 4.628907-8.808594 4.628907zm0 0"/><path fill="#fff" d="m322.265625 385.117188c-3.390625 0-6.742187-1.621094-8.808594-4.628907-3.328125-4.863281-2.113281-11.5 2.75-14.828125 29.101563-19.96875 46.464844-52.839844 46.464844-87.914062 0-33.320313-15.253906-64.171875-41.855469-84.585938-4.671875-3.585937-5.570312-10.261718-1.984375-14.953125 3.605469-4.632812 10.28125-5.589843 14.953125-1.964843 31.917969 24.46875 50.21875 61.484374 50.21875 101.503906 0 42.132812-20.820312 81.558594-55.699218 105.492187-1.855469 1.261719-3.949219 1.878907-6.039063 1.878907zm0 0"/><path fill="#fff" d="m256.003906 320.414062c-18.792968 0-35.582031-12.695312-40.851562-30.828124-1.644532-5.675782 1.621094-11.582032 7.273437-13.226563 5.675781-1.621094 11.585938 1.621094 13.226563 7.273437 2.644531 9.109376 11.007812 15.46875 20.351562 15.46875 11.757813 0 21.335938-9.558593 21.335938-21.332031 0-9.496093-6.210938-17.6875-15.425782-20.355469-5.675781-1.640624-8.917968-7.550781-7.296874-13.203124 1.644531-5.652344 7.511718-8.960938 13.207031-7.296876 18.175781 5.226563 30.847656 22.015626 30.847656 40.832032 0 23.511718-19.136719 42.667968-42.667969 42.667968zm0 0"/><path fill="#fff" d="m10.671875 511.988281c-2.730469 0-5.460937-1.046875-7.550781-3.117187-4.160156-4.160156-4.160156-10.921875 0-15.082032l490.664062-490.667968c4.160156-4.160156 10.925782-4.160156 15.085938 0s4.160156 10.925781 0 15.085937l-490.667969 490.664063c-2.070313 2.070312-4.800781 3.117187-7.53125 3.117187zm0 0"/></svg>
