<?xml version="1.0" standalone="no"?>
<!DOCTYPE svg PUBLIC "-//W3C//DTD SVG 20010904//EN"
 "http://www.w3.org/TR/2001/REC-SVG-20010904/DTD/svg10.dtd">
<svg version="1.0" xmlns="http://www.w3.org/2000/svg"
 width="700.000000pt" height="700.000000pt" viewBox="0 0 700.000000 700.000000"
 preserveAspectRatio="xMidYMid meet">
<metadata>
Created by potrace 1.11, written by Peter Selinger 2001-2013
</metadata>
<g transform="translate(0.000000,700.000000) scale(0.100000,-0.100000)"
fill="#000000" stroke="none">
<path d="M2805 6988 c-78 -14 -180 -46 -253 -80 -104 -48 -261 -153 -315 -212
-14 -16 -34 -20 -97 -23 -180 -6 -343 -78 -473 -209 -58 -58 -157 -197 -157
-219 0 -22 -37 -45 -87 -54 -177 -34 -380 -148 -514 -288 -256 -268 -381 -673
-373 -1211 l2 -153 -54 -114 c-50 -106 -110 -266 -120 -325 -3 -14 -7 -32 -10
-40 -3 -8 -8 -33 -10 -55 -3 -22 -7 -47 -10 -55 -4 -8 -7 -78 -9 -155 -5 -241
35 -411 141 -604 74 -134 211 -292 344 -397 58 -46 59 -46 52 -87 -14 -89 -7
-359 12 -452 68 -328 244 -585 509 -740 45 -26 48 -29 41 -59 -24 -108 -3
-328 41 -430 46 -108 130 -208 227 -270 61 -38 162 -82 214 -92 29 -5 47 -23
121 -122 255 -340 535 -528 799 -538 148 -5 276 35 408 130 67 48 172 154 225
229 19 26 38 47 42 47 5 0 16 -12 26 -28 32 -51 138 -165 202 -218 124 -103
250 -153 396 -159 160 -6 305 42 472 157 103 70 271 241 376 381 l85 112 66
19 c227 64 385 226 441 451 18 74 25 240 12 315 l-7 45 47 29 c183 113 319
260 407 439 41 84 90 228 102 302 2 17 8 55 13 85 10 58 8 337 -3 381 -5 23 2
32 52 72 213 167 379 404 445 637 32 109 37 147 41 305 7 245 -49 477 -178
734 l-34 67 2 154 c5 291 -26 524 -99 744 -102 307 -279 527 -535 664 -77 42
-198 86 -266 96 -39 7 -74 30 -74 51 0 21 -98 160 -151 213 -132 135 -312 215
-485 216 -60 1 -63 2 -142 65 -140 113 -292 193 -438 232 -97 25 -270 32 -369
15 -124 -23 -273 -82 -367 -148 -36 -25 -42 -24 -112 20 -145 90 -285 132
-456 136 -63 2 -137 -1 -165 -6z m253 -243 c81 -12 215 -69 290 -124 l27 -19
0 -2962 1 -2962 -35 -57 c-189 -307 -401 -429 -619 -355 -178 60 -391 252
-561 507 -56 84 -94 110 -177 123 -58 8 -174 67 -218 111 -51 50 -94 143 -104
226 -10 79 -9 100 13 239 17 103 17 108 -1 139 -13 23 -46 47 -107 80 -114 62
-172 105 -245 184 -92 98 -171 247 -198 370 -2 11 -7 31 -10 45 -23 107 -23
355 1 460 10 41 8 86 -5 109 -6 12 -46 47 -88 78 -300 221 -452 491 -455 808
-3 222 45 405 161 625 l55 105 -3 105 c-5 182 4 452 15 470 2 3 6 30 10 60 26
203 119 431 234 570 141 170 309 264 511 286 76 8 112 36 146 109 75 161 167
263 284 319 61 29 73 31 188 33 139 1 135 0 237 92 141 128 313 215 465 234
34 4 136 0 188 -8z m1112 1 c98 -19 203 -64 305 -132 53 -34 56 -41 33 -69
-45 -53 -209 -282 -214 -299 -18 -56 5 -121 50 -146 38 -20 97 -17 128 5 14
11 76 88 137 170 l112 150 94 3 c140 4 234 -29 328 -116 55 -52 119 -141 111
-154 -3 -5 -36 -23 -72 -41 -231 -115 -417 -319 -501 -549 -26 -69 -42 -133
-48 -183 -2 -22 -6 -50 -8 -62 -6 -34 13 -91 38 -113 75 -70 188 -21 202 87
36 284 192 490 475 627 95 46 130 49 227 21 176 -51 335 -168 442 -327 81
-120 146 -293 180 -475 29 -158 38 -332 31 -574 -3 -94 -3 -96 37 -170 34 -63
57 -112 104 -224 15 -36 48 -159 54 -205 20 -132 22 -163 20 -250 -10 -328
-177 -593 -515 -820 -36 -24 -67 -46 -70 -49 -3 -3 -16 -12 -30 -20 -166 -95
-279 -121 -408 -95 -160 33 -317 186 -425 415 -40 82 -72 109 -131 109 -65 0
-116 -53 -116 -120 0 -64 103 -251 209 -378 109 -131 267 -233 410 -265 62
-15 212 -16 276 -3 52 11 128 37 193 67 35 16 67 29 71 29 14 0 4 -221 -13
-303 -58 -277 -205 -467 -464 -602 -73 -38 -103 -68 -110 -109 -1 -12 5 -61
14 -111 38 -204 5 -366 -93 -459 -44 -41 -132 -90 -183 -102 -19 -4 -37 -8
-40 -9 -3 -1 -18 -5 -35 -10 -61 -16 -86 -38 -144 -123 -243 -361 -536 -559
-756 -510 -91 20 -208 97 -282 185 -21 26 -43 51 -48 57 -13 14 -99 145 -114
173 -8 16 -10 780 -9 2980 l3 2957 70 43 c150 93 319 128 475 99z"/>
<path d="M2215 5903 c-107 -19 -197 -66 -269 -138 -154 -153 -188 -373 -89
-569 37 -73 138 -170 215 -206 34 -16 69 -30 76 -30 15 0 13 51 15 -512 2
-419 0 -478 -13 -479 -19 -1 -221 -1 -237 0 -6 1 -17 18 -23 39 -57 177 -258
321 -449 322 -320 1 -558 -310 -472 -613 48 -167 177 -293 346 -340 228 -63
496 76 571 297 9 25 23 46 32 48 9 2 150 3 312 3 l295 -1 0 -248 c0 -211 -2
-250 -15 -256 -113 -52 -154 -78 -203 -127 -62 -62 -113 -153 -132 -237 -24
-103 -3 -236 53 -344 46 -86 163 -181 273 -221 l26 -9 0 -184 c1 -193 -1 -218
-20 -218 -34 0 -141 -64 -194 -117 -100 -97 -152 -225 -148 -360 8 -225 165
-411 388 -457 260 -55 518 119 572 385 20 96 -4 231 -57 326 -55 97 -184 203
-268 220 l-30 6 0 203 c0 181 2 204 16 204 33 0 154 73 205 125 90 89 143 220
140 348 -1 67 -20 150 -44 192 -6 11 -17 33 -25 49 -37 72 -165 176 -257 206
l-35 12 0 326 c0 310 -1 329 -20 360 -30 49 -67 60 -200 58 -63 -1 -122 1
-130 5 -13 6 -15 71 -15 494 l1 486 57 24 c68 27 87 39 149 94 90 80 158 232
158 354 0 163 -107 343 -249 420 -93 51 -219 76 -306 60z m170 -262 c113 -50
171 -197 122 -313 -39 -93 -150 -157 -249 -144 -97 13 -165 66 -197 152 -76
204 124 392 324 305z m-889 -1562 c3 -5 12 -9 20 -9 32 0 100 -59 129 -111 89
-164 -35 -363 -220 -353 -93 5 -170 56 -210 140 -22 45 -25 132 -7 185 23 65
105 136 177 151 36 8 105 5 111 -3z m1224 -1094 c125 -39 201 -191 155 -311
-38 -101 -118 -157 -225 -158 -139 -1 -241 101 -241 240 0 157 161 276 311
229z m24 -1346 c186 -82 194 -343 14 -433 -202 -101 -420 102 -330 307 54 122
197 179 316 126z"/>
<path d="M4196 5829 c-47 -37 -51 -51 -61 -231 -3 -59 -8 -117 -10 -130 -2
-13 -6 -45 -10 -73 -3 -27 -15 -95 -26 -150 -12 -55 -23 -109 -25 -119 -2 -11
-17 -65 -34 -120 -55 -176 -142 -357 -235 -486 -52 -72 -61 -126 -29 -175 37
-56 109 -70 164 -32 64 43 203 276 281 471 l24 58 25 -31 c15 -17 57 -108 95
-203 70 -175 154 -349 206 -425 16 -23 29 -44 29 -48 0 -14 109 -146 169 -204
167 -163 374 -241 641 -244 83 -1 205 8 232 18 7 2 29 6 48 9 56 9 148 35 180
51 81 42 86 157 8 205 -42 25 -56 25 -175 -4 -275 -68 -515 -41 -691 77 -148
99 -292 327 -432 679 -34 87 -79 184 -99 216 -38 58 -107 118 -148 129 -26 6
-27 11 -14 46 5 13 12 39 15 58 3 19 10 57 15 84 5 28 12 73 15 100 3 28 8 60
11 73 6 33 18 202 17 259 0 89 -2 95 -38 129 -29 28 -43 34 -78 34 -29 0 -52
-7 -70 -21z"/>
<path d="M3913 2803 c-31 -6 -78 -66 -81 -103 -3 -40 20 -84 77 -145 171 -183
273 -421 272 -635 -1 -94 -4 -102 -66 -175 -116 -137 -268 -413 -281 -510 -15
-111 110 -181 195 -110 16 14 35 42 42 63 19 62 104 226 157 304 63 94 164
195 231 231 29 16 92 37 144 47 81 16 95 22 120 52 25 29 28 39 24 81 -9 106
-88 134 -260 91 -32 -8 -60 -14 -62 -14 -1 0 -6 26 -10 58 -30 245 -129 457
-310 662 -87 99 -121 117 -192 103z"/>
</g>
</svg>
