<?xml version="1.0" standalone="no"?>
<!DOCTYPE svg PUBLIC "-//W3C//DTD SVG 20010904//EN"
 "http://www.w3.org/TR/2001/REC-SVG-20010904/DTD/svg10.dtd">
<svg version="1.0" xmlns="http://www.w3.org/2000/svg"
 width="194.000000pt" height="194.000000pt" viewBox="0 0 194.000000 194.000000"
 preserveAspectRatio="xMidYMid meet">
<metadata>
Created by potrace 1.14, written by Peter Selinger 2001-2017
</metadata>
<g transform="translate(0.000000,194.000000) scale(0.100000,-0.100000)"
fill="#000000" stroke="none">
<path d="M0 965 l0 -965 970 0 970 0 0 965 0 965 -970 0 -970 0 0 -965z m1102
655 c102 -48 191 -185 211 -325 6 -41 8 -78 4 -81 -4 -4 -23 -3 -42 3 -28 9
-35 8 -35 -2 0 -8 24 -17 65 -24 89 -16 145 -42 184 -86 28 -32 32 -44 29 -79
-2 -32 3 -48 24 -76 15 -20 40 -63 55 -95 25 -54 28 -71 28 -165 0 -102 -1
-107 -33 -158 -76 -117 -241 -186 -390 -162 -72 12 -172 49 -172 64 0 6 16 22
36 35 25 18 31 26 22 32 -23 15 -33 10 -76 -46 -78 -100 -186 -141 -246 -94
-24 19 -42 22 -125 23 -91 1 -102 3 -174 39 -129 64 -183 160 -176 316 5 102
48 190 131 272 63 63 98 75 98 37 0 -29 15 -52 28 -44 6 3 -2 39 -20 93 -24
69 -29 97 -24 136 6 57 27 93 62 109 16 7 36 35 56 77 93 196 304 284 480 201z"/>
<path d="M923 1540 c-83 -17 -132 -52 -187 -135 -29 -44 -32 -55 -13 -55 6 0
38 -11 69 -24 l58 -24 20 34 c58 93 179 161 238 135 l27 -13 -25 27 c-47 50
-112 69 -187 55z"/>
<path d="M1034 1361 c-16 -10 -47 -38 -67 -62 l-38 -43 36 -22 c23 -14 60 -23
107 -27 40 -3 73 -5 74 -4 5 7 -28 134 -41 153 -19 29 -31 30 -71 5z"/>
<path d="M676 1244 c-7 -18 -8 -164 -1 -164 2 0 20 8 40 17 28 13 39 28 55 71
12 30 19 56 18 57 -3 3 -97 35 -102 35 -2 0 -7 -7 -10 -16z"/>
<path d="M955 1074 c-22 -9 -60 -20 -84 -25 -24 -5 -45 -10 -47 -12 -5 -6 -44
-146 -44 -161 0 -9 26 -43 58 -76 68 -69 81 -72 182 -37 59 20 65 25 73 57 5
19 15 57 23 85 l15 49 -68 67 -68 68 -40 -15z m57 -56 c35 -13 57 -47 64 -100
8 -57 -25 -107 -82 -127 -52 -18 -88 -9 -131 34 -29 29 -33 40 -33 83 0 40 6
57 26 81 40 48 86 56 156 29z"/>
<path d="M1236 1034 c-13 -35 -4 -61 34 -98 l40 -38 35 26 c19 15 35 31 35 37
0 9 -116 89 -130 89 -5 0 -11 -7 -14 -16z"/>
<path d="M690 980 c0 -5 5 -10 10 -10 6 0 10 5 10 10 0 6 -4 10 -10 10 -5 0
-10 -4 -10 -10z"/>
<path d="M531 866 c-28 -30 -51 -64 -51 -75 0 -26 57 -56 123 -66 40 -6 46 -5
41 8 -3 9 -1 24 5 35 8 15 6 29 -10 61 -11 23 -24 52 -29 66 -5 14 -13 25 -18
25 -5 0 -32 -24 -61 -54z"/>
<path d="M459 893 c-13 -16 -12 -17 4 -4 9 7 17 15 17 17 0 8 -8 3 -21 -13z"/>
<path d="M1430 872 c-8 -9 -31 -29 -49 -44 l-34 -26 23 -54 c23 -55 37 -158
27 -200 -4 -14 -18 -37 -32 -52 -25 -27 -25 -27 -3 -21 42 12 102 60 133 105
26 39 30 54 30 110 0 54 -6 77 -33 133 -18 37 -36 67 -40 66 -4 0 -14 -8 -22
-17z"/>
<path d="M1234 742 c-6 -4 -25 -29 -44 -57 -18 -27 -41 -59 -52 -71 -18 -20
-18 -21 9 -33 16 -8 56 -16 90 -18 60 -6 62 -5 69 20 8 33 -31 167 -49 167 -7
0 -17 -4 -23 -8z"/>
<path d="M387 734 c-9 -16 9 -89 34 -134 35 -64 97 -99 188 -107 l73 -6 -7 59
c-4 32 -10 62 -14 65 -3 4 -35 12 -71 18 -96 18 -163 53 -187 95 -6 10 -13 15
-16 10z"/>
<path d="M791 623 l-33 -4 7 -47 c4 -26 10 -51 14 -55 8 -8 137 49 147 65 3 5
-5 17 -18 28 -22 19 -46 21 -117 13z"/>
<path d="M910 440 c-9 -6 -10 -10 -3 -10 6 0 15 5 18 10 8 12 4 12 -15 0z"/>
</g>
</svg>
