<?xml version="1.0" standalone="no"?>
<!DOCTYPE svg PUBLIC "-//W3C//DTD SVG 20010904//EN"
 "http://www.w3.org/TR/2001/REC-SVG-20010904/DTD/svg10.dtd">
<svg version="1.0" xmlns="http://www.w3.org/2000/svg"
 width="700.000000pt" height="700.000000pt" viewBox="0 0 700.000000 700.000000"
 preserveAspectRatio="xMidYMid meet">
<metadata>
Created by potrace 1.11, written by Peter Selinger 2001-2013
</metadata>
<g transform="translate(0.000000,700.000000) scale(0.100000,-0.100000)"
fill="#000000" stroke="none">
<path d="M4988 5594 c-2 -1 -50 -5 -108 -8 -325 -20 -614 -114 -915 -299 -207
-128 -447 -366 -579 -575 -68 -108 -195 -385 -211 -460 l-7 -33 87 -40 c48
-22 94 -39 102 -37 8 2 21 14 28 28 22 40 45 92 45 102 0 19 107 229 155 303
136 210 281 358 485 496 67 45 72 48 150 90 84 46 302 133 357 142 15 3 60 12
99 21 113 24 161 29 315 30 303 3 508 -42 778 -172 140 -67 312 -189 447 -318
169 -161 394 -527 394 -641 l0 -35 -255 4 c-281 4 -264 0 -310 73 -177 279
-400 450 -705 541 -108 32 -132 43 -174 81 -61 55 -106 74 -172 74 -94 0 -172
-50 -211 -138 -28 -64 -29 -114 -4 -168 33 -73 111 -136 185 -149 38 -7 109
17 176 58 65 40 70 40 191 -4 158 -59 267 -128 371 -238 79 -84 111 -129 178
-255 45 -84 55 -97 78 -98 412 -14 939 -16 952 -3 17 17 -12 161 -60 306 -68
203 -224 490 -336 618 -65 74 -206 213 -269 267 -218 184 -567 348 -845 399
-80 15 -141 24 -185 29 -56 7 -223 13 -227 9z m49 -806 c36 -41 36 -67 -2
-105 -33 -33 -35 -33 -63 -19 -63 33 -75 76 -31 117 37 35 68 37 96 7z"/>
<path d="M1821 5568 l-30 -8 -1 -240 -1 -240 98 -1 c112 -1 135 0 144 9 4 4
10 54 13 112 4 58 10 108 14 112 10 10 471 13 480 3 4 -3 8 -429 10 -945 l3
-937 -44 -54 c-62 -76 -68 -92 -68 -164 0 -93 15 -137 60 -178 55 -50 95 -68
161 -74 133 -12 252 101 252 241 0 74 -16 117 -69 177 l-39 46 -3 579 c-4
1173 -9 1546 -19 1556 -12 12 -916 17 -961 6z m901 -2308 c36 -28 40 -54 15
-91 -33 -48 -48 -54 -89 -35 -59 28 -69 75 -25 124 25 27 66 28 99 2z"/>
<path d="M1827 4820 c-44 -13 -94 -57 -124 -107 -21 -36 -28 -62 -29 -112 -3
-79 11 -117 69 -181 l43 -47 -2 -549 c-1 -302 -3 -677 -4 -833 l-3 -285 -31
-58 c-35 -70 -121 -152 -185 -180 -57 -24 -167 -27 -237 -5 -97 29 -161 84
-209 178 -38 74 -43 115 -49 428 -3 111 -7 206 -11 209 -8 9 -993 7 -1002 -2
-15 -15 -5 -558 13 -686 7 -53 46 -213 56 -232 13 -26 34 -22 130 25 82 39 88
44 88 73 0 28 -12 102 -26 164 -3 14 -8 108 -11 209 -4 136 -2 185 7 191 6 4
87 8 178 10 92 1 192 3 222 5 70 3 97 -3 105 -23 3 -9 8 -55 10 -102 12 -221
16 -259 30 -308 65 -219 306 -396 553 -407 180 -7 343 63 473 202 59 63 92
120 125 218 33 98 32 91 35 1025 1 377 4 699 6 717 3 17 13 40 22 50 62 67 74
93 79 167 6 92 -8 133 -59 185 -62 62 -173 88 -262 61z m126 -162 c9 -7 23
-26 31 -42 14 -27 13 -32 -2 -58 -33 -57 -119 -51 -140 9 -11 34 -1 66 30 87
27 19 58 21 81 4z"/>
<path d="M4305 4620 c-67 -51 -193 -180 -254 -260 -52 -70 -160 -260 -146
-260 3 0 0 -10 -6 -22 -7 -13 -16 -36 -20 -53 -5 -16 -15 -55 -24 -85 -19 -67
-29 -200 -29 -385 1 -264 15 -354 88 -553 26 -70 104 -202 165 -277 158 -198
332 -319 572 -399 145 -48 181 -53 379 -51 144 2 190 6 260 24 47 12 94 26
105 30 11 5 52 21 90 36 145 55 223 109 373 258 70 69 123 133 165 199 l62 97
260 -2 c259 -2 260 -2 263 -24 5 -37 -111 -277 -185 -383 -138 -196 -367 -410
-550 -513 -168 -95 -387 -180 -523 -202 -19 -3 -48 -9 -65 -14 -52 -13 -88 -3
-150 41 -59 43 -61 43 -145 43 -75 0 -89 -3 -120 -25 -46 -33 -57 -47 -82 -99
-29 -62 -32 -94 -13 -157 20 -69 84 -136 145 -152 84 -21 178 1 235 55 39 37
71 51 130 58 89 9 328 72 425 112 394 159 694 402 922 746 118 178 182 314
234 497 13 47 29 101 35 120 5 19 11 55 12 80 l2 45 -50 6 c-27 3 -245 6 -484
5 -421 -1 -434 -2 -448 -21 -8 -11 -38 -61 -66 -112 -127 -226 -324 -395 -547
-470 -127 -42 -134 -43 -290 -43 -211 1 -278 15 -425 88 -132 66 -188 109
-316 248 -108 117 -195 299 -217 454 -4 25 -7 151 -7 280 0 272 11 332 92 500
61 128 147 233 286 347 15 13 27 29 27 35 0 7 -19 51 -43 98 -49 98 -62 105
-122 60z m739 -2931 c14 -17 26 -35 26 -40 0 -21 -22 -49 -48 -62 -76 -38
-138 48 -77 108 33 34 67 32 99 -6z"/>
<path d="M3125 3774 c-66 -22 -114 -68 -142 -134 -24 -58 0 -202 37 -225 21
-13 62 -89 65 -119 2 -17 8 -58 14 -91 6 -33 13 -76 15 -96 3 -20 12 -65 21
-100 72 -279 212 -563 377 -763 197 -239 377 -382 671 -533 l118 -61 24 21
c31 29 78 162 66 185 -5 9 -47 37 -93 61 -159 83 -194 104 -288 174 -113 84
-271 242 -351 350 -51 68 -169 257 -169 271 0 2 -16 38 -35 78 -19 41 -50 129
-70 197 -38 134 -40 143 -50 227 -4 33 -8 70 -10 83 -5 29 14 73 56 127 25 33
32 55 36 103 6 73 -16 153 -55 193 -48 51 -166 77 -237 52z m118 -162 c9 -10
20 -33 23 -50 9 -45 -17 -72 -67 -72 -70 0 -102 86 -46 125 29 20 70 19 90 -3z"/>
<path d="M2563 2659 c-6 -8 -18 -50 -28 -94 -46 -212 -144 -391 -300 -549
-145 -146 -277 -229 -472 -298 -86 -30 -93 -31 -298 -34 -157 -3 -227 0 -277
11 -84 18 -252 82 -298 113 -19 13 -49 30 -67 39 -47 22 -83 68 -83 106 -1 89
-36 156 -110 206 -54 37 -126 47 -204 29 -98 -22 -173 -131 -169 -244 3 -94
97 -207 183 -218 19 -3 58 -8 85 -11 34 -5 70 -20 115 -49 171 -112 245 -145
445 -203 l120 -35 220 0 c193 0 230 3 305 22 193 49 326 107 465 202 96 65
158 120 281 249 90 95 212 304 259 443 34 100 76 314 63 316 -2 1 -53 3 -113
6 -86 5 -113 3 -122 -7z m-2013 -649 c38 -37 38 -64 1 -101 -32 -31 -50 -35
-84 -17 -51 27 -62 81 -24 115 44 41 68 41 107 3z"/>
</g>
</svg>
